<mxfile host="app.diagrams.net" modified="2023-11-09T15:55:00.927Z" agent="Mozilla/5.0 (Windows NT 10.0; Win64; x64) AppleWebKit/537.36 (KHTML, like Gecko) Chrome/116.0.0.0 Safari/537.36 OPR/102.0.0.0 (Edition std-1)" etag="53CWu1OCdLOkWga5Dyei" version="22.1.0" type="github">
  <diagram name="Page-1" id="ME5NQU0Z-TP7YkoUcXIG">
    <mxGraphModel dx="604" dy="686" grid="1" gridSize="10" guides="1" tooltips="1" connect="1" arrows="1" fold="1" page="1" pageScale="1" pageWidth="827" pageHeight="1169" math="0" shadow="0">
      <root>
        <mxCell id="0" />
        <mxCell id="1" parent="0" />
        <mxCell id="Wh3D9cqPKSktoBIUBjh4-1" value="Jeu" style="swimlane;fontStyle=1;align=center;verticalAlign=top;childLayout=stackLayout;horizontal=1;startSize=26;horizontalStack=0;resizeParent=1;resizeParentMax=0;resizeLast=0;collapsible=1;marginBottom=0;whiteSpace=wrap;html=1;" vertex="1" parent="1">
          <mxGeometry x="260" y="260" width="290" height="280" as="geometry" />
        </mxCell>
        <mxCell id="Wh3D9cqPKSktoBIUBjh4-2" value="+ _pqt : Paquet&lt;br&gt;+ _players : List&amp;lt;Joueur&amp;gt;&lt;br&gt;+ _nbPlayers : int&lt;br&gt;+ _de : De&lt;br&gt;+ _ currentTurn : int&lt;br&gt;+ _playerPlaying : Joueur?" style="text;strokeColor=none;fillColor=none;align=left;verticalAlign=top;spacingLeft=4;spacingRight=4;overflow=hidden;rotatable=0;points=[[0,0.5],[1,0.5]];portConstraint=eastwest;whiteSpace=wrap;html=1;" vertex="1" parent="Wh3D9cqPKSktoBIUBjh4-1">
          <mxGeometry y="26" width="290" height="104" as="geometry" />
        </mxCell>
        <mxCell id="Wh3D9cqPKSktoBIUBjh4-3" value="" style="line;strokeWidth=1;fillColor=none;align=left;verticalAlign=middle;spacingTop=-1;spacingLeft=3;spacingRight=3;rotatable=0;labelPosition=right;points=[];portConstraint=eastwest;strokeColor=inherit;" vertex="1" parent="Wh3D9cqPKSktoBIUBjh4-1">
          <mxGeometry y="130" width="290" height="8" as="geometry" />
        </mxCell>
        <mxCell id="Wh3D9cqPKSktoBIUBjh4-4" value="+ Jeu(int)&lt;br&gt;+ ResetPaquet(): void&lt;br&gt;+ ResetPlayers() : void&lt;br&gt;+ GiveStartingCards() : void&lt;br&gt;+ SetupGame() : void&lt;br&gt;+ Turn() : void&lt;br&gt;+ static GiveCard(Joueur, Carte?) : void&lt;br&gt;+ static CardNotFoundException() : void&lt;br&gt;+ Display() : void" style="text;strokeColor=none;fillColor=none;align=left;verticalAlign=top;spacingLeft=4;spacingRight=4;overflow=hidden;rotatable=0;points=[[0,0.5],[1,0.5]];portConstraint=eastwest;whiteSpace=wrap;html=1;" vertex="1" parent="Wh3D9cqPKSktoBIUBjh4-1">
          <mxGeometry y="138" width="290" height="142" as="geometry" />
        </mxCell>
        <mxCell id="Wh3D9cqPKSktoBIUBjh4-14" style="edgeStyle=orthogonalEdgeStyle;rounded=0;orthogonalLoop=1;jettySize=auto;html=1;" edge="1" parent="1" source="Wh3D9cqPKSktoBIUBjh4-5" target="Wh3D9cqPKSktoBIUBjh4-9">
          <mxGeometry relative="1" as="geometry" />
        </mxCell>
        <mxCell id="Wh3D9cqPKSktoBIUBjh4-5" value="Paquet&lt;br&gt;" style="swimlane;fontStyle=1;align=center;verticalAlign=top;childLayout=stackLayout;horizontal=1;startSize=26;horizontalStack=0;resizeParent=1;resizeParentMax=0;resizeLast=0;collapsible=1;marginBottom=0;whiteSpace=wrap;html=1;" vertex="1" parent="1">
          <mxGeometry x="560" y="160" width="160" height="86" as="geometry" />
        </mxCell>
        <mxCell id="Wh3D9cqPKSktoBIUBjh4-6" value="+ field: type" style="text;strokeColor=none;fillColor=none;align=left;verticalAlign=top;spacingLeft=4;spacingRight=4;overflow=hidden;rotatable=0;points=[[0,0.5],[1,0.5]];portConstraint=eastwest;whiteSpace=wrap;html=1;" vertex="1" parent="Wh3D9cqPKSktoBIUBjh4-5">
          <mxGeometry y="26" width="160" height="26" as="geometry" />
        </mxCell>
        <mxCell id="Wh3D9cqPKSktoBIUBjh4-7" value="" style="line;strokeWidth=1;fillColor=none;align=left;verticalAlign=middle;spacingTop=-1;spacingLeft=3;spacingRight=3;rotatable=0;labelPosition=right;points=[];portConstraint=eastwest;strokeColor=inherit;" vertex="1" parent="Wh3D9cqPKSktoBIUBjh4-5">
          <mxGeometry y="52" width="160" height="8" as="geometry" />
        </mxCell>
        <mxCell id="Wh3D9cqPKSktoBIUBjh4-8" value="+ method(type): type" style="text;strokeColor=none;fillColor=none;align=left;verticalAlign=top;spacingLeft=4;spacingRight=4;overflow=hidden;rotatable=0;points=[[0,0.5],[1,0.5]];portConstraint=eastwest;whiteSpace=wrap;html=1;" vertex="1" parent="Wh3D9cqPKSktoBIUBjh4-5">
          <mxGeometry y="60" width="160" height="26" as="geometry" />
        </mxCell>
        <mxCell id="Wh3D9cqPKSktoBIUBjh4-9" value="Carte" style="swimlane;fontStyle=1;align=center;verticalAlign=top;childLayout=stackLayout;horizontal=1;startSize=26;horizontalStack=0;resizeParent=1;resizeParentMax=0;resizeLast=0;collapsible=1;marginBottom=0;whiteSpace=wrap;html=1;" vertex="1" parent="1">
          <mxGeometry x="560" y="280" width="160" height="86" as="geometry" />
        </mxCell>
        <mxCell id="Wh3D9cqPKSktoBIUBjh4-10" value="+ field: type" style="text;strokeColor=none;fillColor=none;align=left;verticalAlign=top;spacingLeft=4;spacingRight=4;overflow=hidden;rotatable=0;points=[[0,0.5],[1,0.5]];portConstraint=eastwest;whiteSpace=wrap;html=1;" vertex="1" parent="Wh3D9cqPKSktoBIUBjh4-9">
          <mxGeometry y="26" width="160" height="26" as="geometry" />
        </mxCell>
        <mxCell id="Wh3D9cqPKSktoBIUBjh4-11" value="" style="line;strokeWidth=1;fillColor=none;align=left;verticalAlign=middle;spacingTop=-1;spacingLeft=3;spacingRight=3;rotatable=0;labelPosition=right;points=[];portConstraint=eastwest;strokeColor=inherit;" vertex="1" parent="Wh3D9cqPKSktoBIUBjh4-9">
          <mxGeometry y="52" width="160" height="8" as="geometry" />
        </mxCell>
        <mxCell id="Wh3D9cqPKSktoBIUBjh4-12" value="+ method(type): type" style="text;strokeColor=none;fillColor=none;align=left;verticalAlign=top;spacingLeft=4;spacingRight=4;overflow=hidden;rotatable=0;points=[[0,0.5],[1,0.5]];portConstraint=eastwest;whiteSpace=wrap;html=1;" vertex="1" parent="Wh3D9cqPKSktoBIUBjh4-9">
          <mxGeometry y="60" width="160" height="26" as="geometry" />
        </mxCell>
        <mxCell id="Wh3D9cqPKSktoBIUBjh4-15" value="Joueur" style="swimlane;fontStyle=1;align=center;verticalAlign=top;childLayout=stackLayout;horizontal=1;startSize=26;horizontalStack=0;resizeParent=1;resizeParentMax=0;resizeLast=0;collapsible=1;marginBottom=0;whiteSpace=wrap;html=1;" vertex="1" parent="1">
          <mxGeometry y="260" width="250" height="240" as="geometry" />
        </mxCell>
        <mxCell id="Wh3D9cqPKSktoBIUBjh4-16" value="+ _money : int&lt;br&gt;+ _cards : Paquet&lt;br&gt;+ _name : string" style="text;strokeColor=none;fillColor=none;align=left;verticalAlign=top;spacingLeft=4;spacingRight=4;overflow=hidden;rotatable=0;points=[[0,0.5],[1,0.5]];portConstraint=eastwest;whiteSpace=wrap;html=1;" vertex="1" parent="Wh3D9cqPKSktoBIUBjh4-15">
          <mxGeometry y="26" width="250" height="64" as="geometry" />
        </mxCell>
        <mxCell id="Wh3D9cqPKSktoBIUBjh4-17" value="" style="line;strokeWidth=1;fillColor=none;align=left;verticalAlign=middle;spacingTop=-1;spacingLeft=3;spacingRight=3;rotatable=0;labelPosition=right;points=[];portConstraint=eastwest;strokeColor=inherit;" vertex="1" parent="Wh3D9cqPKSktoBIUBjh4-15">
          <mxGeometry y="90" width="250" height="8" as="geometry" />
        </mxCell>
        <mxCell id="Wh3D9cqPKSktoBIUBjh4-18" value="+ Joueur(string)&amp;nbsp;&lt;br&gt;+ ToString(override) : string&lt;br&gt;+ AddCard(Carte) : void&lt;br&gt;+ ActivateCardsPlaying(int, Jeu) : void&lt;br&gt;+ ActivateCardsSpactating(int, Jeu) : void&lt;br&gt;+ Display() : void" style="text;strokeColor=none;fillColor=none;align=left;verticalAlign=top;spacingLeft=4;spacingRight=4;overflow=hidden;rotatable=0;points=[[0,0.5],[1,0.5]];portConstraint=eastwest;whiteSpace=wrap;html=1;" vertex="1" parent="Wh3D9cqPKSktoBIUBjh4-15">
          <mxGeometry y="98" width="250" height="142" as="geometry" />
        </mxCell>
        <mxCell id="Wh3D9cqPKSktoBIUBjh4-20" value="De" style="swimlane;fontStyle=1;align=center;verticalAlign=top;childLayout=stackLayout;horizontal=1;startSize=26;horizontalStack=0;resizeParent=1;resizeParentMax=0;resizeLast=0;collapsible=1;marginBottom=0;whiteSpace=wrap;html=1;" vertex="1" parent="1">
          <mxGeometry x="80" y="40" width="160" height="160" as="geometry" />
        </mxCell>
        <mxCell id="Wh3D9cqPKSktoBIUBjh4-21" value="+ readonly _nbFaces : int&lt;br&gt;+ _currentFace : int&lt;br&gt;+ static nbDe : int" style="text;strokeColor=none;fillColor=none;align=left;verticalAlign=top;spacingLeft=4;spacingRight=4;overflow=hidden;rotatable=0;points=[[0,0.5],[1,0.5]];portConstraint=eastwest;whiteSpace=wrap;html=1;" vertex="1" parent="Wh3D9cqPKSktoBIUBjh4-20">
          <mxGeometry y="26" width="160" height="54" as="geometry" />
        </mxCell>
        <mxCell id="Wh3D9cqPKSktoBIUBjh4-22" value="" style="line;strokeWidth=1;fillColor=none;align=left;verticalAlign=middle;spacingTop=-1;spacingLeft=3;spacingRight=3;rotatable=0;labelPosition=right;points=[];portConstraint=eastwest;strokeColor=inherit;" vertex="1" parent="Wh3D9cqPKSktoBIUBjh4-20">
          <mxGeometry y="80" width="160" height="8" as="geometry" />
        </mxCell>
        <mxCell id="Wh3D9cqPKSktoBIUBjh4-23" value="+ De(int)&lt;br&gt;+ virtual Roll() : void&lt;br&gt;+ override ToString() : string&lt;br&gt;+ Display() : void" style="text;strokeColor=none;fillColor=none;align=left;verticalAlign=top;spacingLeft=4;spacingRight=4;overflow=hidden;rotatable=0;points=[[0,0.5],[1,0.5]];portConstraint=eastwest;whiteSpace=wrap;html=1;" vertex="1" parent="Wh3D9cqPKSktoBIUBjh4-20">
          <mxGeometry y="88" width="160" height="72" as="geometry" />
        </mxCell>
        <mxCell id="Wh3D9cqPKSktoBIUBjh4-24" value="Program" style="swimlane;fontStyle=1;align=center;verticalAlign=top;childLayout=stackLayout;horizontal=1;startSize=26;horizontalStack=0;resizeParent=1;resizeParentMax=0;resizeLast=0;collapsible=1;marginBottom=0;whiteSpace=wrap;html=1;" vertex="1" parent="1">
          <mxGeometry x="320" y="40" width="160" height="90" as="geometry" />
        </mxCell>
        <mxCell id="Wh3D9cqPKSktoBIUBjh4-26" value="" style="line;strokeWidth=1;fillColor=none;align=left;verticalAlign=middle;spacingTop=-1;spacingLeft=3;spacingRight=3;rotatable=0;labelPosition=right;points=[];portConstraint=eastwest;strokeColor=inherit;" vertex="1" parent="Wh3D9cqPKSktoBIUBjh4-24">
          <mxGeometry y="26" width="160" height="64" as="geometry" />
        </mxCell>
      </root>
    </mxGraphModel>
  </diagram>
</mxfile>
